<?xml version="1.0" encoding="UTF-8" standalone="no"?>
<!-- Created with Inkscape (http://www.inkscape.org/) -->

<svg
   xmlns:dc="http://purl.org/dc/elements/1.1/"
   xmlns:cc="http://creativecommons.org/ns#"
   xmlns:rdf="http://www.w3.org/1999/02/22-rdf-syntax-ns#"
   xmlns:svg="http://www.w3.org/2000/svg"
   xmlns="http://www.w3.org/2000/svg"
   xmlns:sodipodi="http://sodipodi.sourceforge.net/DTD/sodipodi-0.dtd"
   xmlns:inkscape="http://www.inkscape.org/namespaces/inkscape"
   version="1.1"
   id="svg815"
   width="400"
   height="400"
   viewBox="0 0 400 400"
   sodipodi:docname="avt.svg"
   inkscape:version="0.92.3 (2405546, 2018-03-11)">
  <metadata
     id="metadata821">
    <rdf:RDF>
      <cc:Work
         rdf:about="">
        <dc:format>image/svg+xml</dc:format>
        <dc:type
           rdf:resource="http://purl.org/dc/dcmitype/StillImage" />
        <dc:title></dc:title>
      </cc:Work>
    </rdf:RDF>
  </metadata>
  <defs
     id="defs819" />
  <sodipodi:namedview
     pagecolor="#ffffff"
     bordercolor="#666666"
     borderopacity="1"
     objecttolerance="10"
     gridtolerance="10"
     guidetolerance="10"
     inkscape:pageopacity="0"
     inkscape:pageshadow="2"
     inkscape:window-width="1920"
     inkscape:window-height="1017"
     id="namedview817"
     showgrid="false"
     inkscape:zoom="2.0175"
     inkscape:cx="200"
     inkscape:cy="200"
     inkscape:window-x="1912"
     inkscape:window-y="46"
     inkscape:window-maximized="1"
     inkscape:current-layer="svg815" />
  <path
     style="fill:#000000"
     d="m 312.15835,377.36388 c 1.01221,-6.62176 4.99978,-19.905 8.8178,-29.37353 3.8049,-9.43598 12.25734,-25.46866 13.4271,-25.46866 0.41294,0 1.75494,4.1625 2.98222,9.25 4.39504,18.21906 5.85387,16.11799 7.52123,-10.83243 l 1.29411,-20.91757 8.28392,-18.5 c 4.55616,-10.175 8.61584,-18.85913 9.02153,-19.29808 2.27129,-2.45749 1.58529,39.14717 -0.88415,53.62183 -3.28802,19.27282 -11.02462,36.65928 -19.97053,44.87973 -4.49902,4.13419 -26.10464,18.82385 -30.3555,20.63871 -0.44082,0.1882 -0.5028,-1.6118 -0.13773,-4 z m -153.7463,-10.59401 c -21.19786,-21.66616 -50.46614,-63.52244 -65.802208,-94.10309 -9.53425,-19.01163 -20.02409,-46.54914 -25.95845,-68.14509 -2.74039,-9.97263 -7.30055,-32.13647 -6.7295,-32.70751 0.24927,-0.24928 5.66709,3.46301 12.03959,8.24952 8.87841,6.66875 11.89407,8.44739 12.90288,7.61015 0.72408,-0.60093 3.31155,-4.92567 5.74993,-9.61053 2.43838,-4.68486 4.69549,-8.52326 5.0158,-8.52978 0.32032,-0.007 1.35922,5.27565 2.30868,11.73815 8.249208,56.14807 25.636668,114.41078 44.839438,150.25 5.60806,10.46663 22.69898,38.61126 26.58387,43.77722 5.27031,7.00823 0.98795,3.67267 -10.95003,-8.52904 z m 88.08183,9.16429 c -6.30915,-6.56794 -15.31635,-13.06059 -28.24057,-20.35662 -29.25055,-16.51262 -39.05773,-28.93531 -47.06981,-59.62303 -2.31735,-8.87588 -6.43777,-29.8958 -7.98006,-40.70948 l -0.53864,-3.77666 2.87651,2.27666 c 1.58209,1.25216 12.07842,10.60166 23.32519,20.77666 17.63221,15.95193 20.39654,18.84433 20.07018,21 -0.20816,1.375 -1.27012,7.45 -2.35991,13.5 -3.19349,17.72889 -3.57408,22.5 -1.79479,22.5 0.8303,0 5.50476,-3.61499 10.38768,-8.03331 4.88293,-4.41832 9.62699,-8.46352 10.54235,-8.98932 1.39407,-0.80078 2.63222,0.70658 7.62534,9.28331 10.00717,17.18942 15.11694,31.08209 16.67035,45.32414 0.35485,3.25335 0.85509,6.92768 1.11165,8.16518 0.65929,3.18009 -0.64937,2.80167 -4.62547,-1.33753 z m 42.55383,-111.91409 c -7.7603,-7.76186 -16.53797,-14.79929 -29.07618,-23.3116 -7.85796,-5.33484 -29.36494,-16.3412 -30.52752,-15.62269 -1.61195,0.99624 -0.85419,4.80202 2.57463,12.93094 1.85479,4.39726 3.21704,8.15034 3.02722,8.34016 -0.18983,0.18982 -2.92143,-1.6 -6.07025,-3.97737 -5.92444,-4.473 -17.35793,-17.01728 -22.27105,-24.43474 -2.8053,-4.23522 -2.80854,-4.25978 -1.53152,-11.58365 2.78888,-15.99454 3.60813,-31.89903 2.46773,-47.9077 -0.60461,-8.48745 -1.76643,-18.55069 -2.58182,-22.36275 -0.81539,-3.81206 -1.28865,-7.1249 -1.05169,-7.36186 0.23696,-0.23696 2.50017,1.26483 5.02936,3.3373 3.35794,2.75158 4.89673,3.46994 5.7039,2.66277 1.37318,-1.37318 -2.41271,-9.44144 -20.49958,-43.687552 -7.25628,-13.7392 -13.37452,-25.42057 -13.59609,-25.9586 -0.60731,-1.47466 17.05349,14.60191 28.49505,25.93896 10.12355,10.031072 20.7813,23.647992 34.29469,43.816732 5.60613,8.36714 7.54036,10.57358 8.54108,9.74306 1.05201,-0.87309 0.95946,-2.47652 -0.49539,-8.58293 -0.98399,-4.1301 -1.85972,-9.86448 -1.94607,-12.74306 -0.33708,-11.23677 0.0492,-22.73321 0.7635,-22.72134 0.4125,0.007 2.02078,3.32125 3.57395,7.36534 4.59564,11.96597 13.06078,23.60188 31.12237,42.77981 9.14637,9.71168 17.36289,17.93894 18.25894,18.28278 3.52282,1.35183 3.24966,-1.45584 -1.19821,-12.31564 -10.96502,-26.77187 -15.07681,-39.07329 -22.10248,-66.124752 -5.52398,-21.26942 -11.94342,-40.7735 -20.00721,-60.78759 -4.09788,-10.17083 -7.28599,-18.65712 -7.08469,-18.85842 0.2013,-0.2013 5.7258,4.2089 12.27667,9.80044 6.55086,5.59154 18.43566,15.35465 26.41066,21.69579 48.11077,38.2542 61.88325,52.52288 74.08348,76.752602 12.98463,25.78753 22.00532,69.05375 20.41085,97.89718 -0.68634,12.41551 -2.80422,29.14322 -3.81817,30.15718 -0.31836,0.31835 -0.87431,-0.71178 -1.23545,-2.28918 -1.47066,-6.42348 -6.67202,-23.84515 -10.01412,-33.54173 -3.59568,-10.43232 -17.7638,-40.03132 -20.08313,-41.95618 -2.32937,-1.93321 -3.34346,0.21384 -3.34346,7.07885 0,6.21946 -3.14596,24.86018 -4.58991,27.19654 -0.3294,0.53298 -2.20642,-2.43172 -4.17116,-6.58822 -1.96473,-4.15649 -4.17225,-7.55726 -4.90559,-7.55726 -1.54369,0 -1.48048,-0.60955 -1.34795,13 0.12382,12.71511 -1.4715,31.65258 -3.57535,42.44172 -1.79169,9.18828 -8.2469,26.77714 -9.53516,25.98095 -0.48118,-0.29739 -0.87488,-1.12684 -0.87488,-1.84323 0,-0.71639 -3.15049,-7.55233 -7.00108,-15.19098 -7.53978,-14.9571 -17.48377,-29.66557 -20.44113,-30.23511 -2.11604,-0.40751 -2.12907,-0.50669 1.81832,13.84485 2.52568,9.18264 5.18288,28.51801 4.47152,32.5375 -0.28326,1.6006 -1.82887,0.48276 -8.34763,-6.03732 z m -113,-27.18414 c -3.3,-2.35676 -11.625,-7.62884 -18.5,-11.71575 -13.33876,-7.92934 -24.09249,-15.52848 -30.3568,-21.4517 -3.78703,-3.58082 -13.96102,-17.1623 -13.3295,-17.79383 0.177,-0.177 5.69133,2.08484 12.25406,5.0263 18.35559,8.22711 39.13991,15.03748 41.4795,13.59153 3.49741,-2.16152 1.5349,-24.56428 -3.5984,-41.07699 -1.43516,-4.61659 -7.06022,-17.3938 -12.50014,-28.3938 -5.91806,-11.96685 -10.92321,-23.61492 -12.46125,-29 -3.01402,-10.552942 -5.73745,-23.250062 -5.28079,-24.620032 0.17622,-0.52866 2.07568,1.34047 4.22102,4.15363 4.15046,5.44244 11.5013,10.92806 21.3509,15.933272 5.76458,2.92935 6.24649,3.47374 10.6887,12.07467 8.93865,17.30688 15.66037,39.27858 18.95472,61.95846 2.00836,13.82655 2.09157,20.63084 0.31184,25.5 -2.50993,6.86691 -5.87212,23.15001 -6.56765,31.8071 l -0.66621,8.29215 z m 20.19718,-13.81424 c -0.37134,-2.2 -0.68397,-8.05 -0.69473,-13 -0.0639,-29.40046 -5.93875,-60.90977 -15.95767,-85.58759 -8.19425,-20.18345 -19.26456,-36.352962 -36.94829,-53.967372 -14.61739,-14.56011 -23.58905,-20.96465 -45.544808,-32.51279 -13.57427,-7.1397 -22.04088,-10.53048 -34.86424,-13.96274 -12.63669,-3.38229 -15.04567,-1.53815 -7.87757,6.03049 4.98813,5.26684 14.27542,19.58784 17.18549,26.5 5.45431,12.95537 12.18896,39.03834 13.94286,54.000002 0.61251,5.225 2.05896,15.41391 3.21435,22.64202 l 2.1007,13.14201 -5.28292,9.85799 c -2.90561,5.42189 -5.395,10.00288 -5.53198,10.17999 -0.13698,0.1771 -5.71644,-3.62875 -12.39879,-8.45746 l -12.14973,-8.77948 0.6768,-29.04253 c 0.99363,-42.638192 -0.75142,-55.172152 -10.35194,-74.353392 -8.44634,-16.87527 -16.97868,-26.87533 -30.04045,-35.20796 -8.92456,-5.6933403 -8.63872,-5.9099303 8.82574,-6.6876103 17.97505,-0.80042 46.67971,2.40088 60.5,6.7472703 1.65,0.51892 5.025,1.5813 7.5,2.36086 11.803728,3.71784 26.778718,10.77659 33.808188,15.93613 9.33374,6.85085 28.1574,22.71325 34.14311,28.77186 19.54037,19.77837 33.18781,45.942102 40.01834,76.719832 5.00414,22.54822 4.47488,55.36795 -1.32511,82.17047 -2.14499,9.91226 -2.30997,10.2761 -2.94735,6.5 z"
     id="path825"
     inkscape:connector-curvature="0" />
</svg>
